<?xml version="1.0" standalone="no"?>
<!DOCTYPE svg PUBLIC "-//W3C//DTD SVG 20010904//EN"
 "http://www.w3.org/TR/2001/REC-SVG-20010904/DTD/svg10.dtd">
<svg version="1.0" xmlns="http://www.w3.org/2000/svg"
 width="700.000000pt" height="700.000000pt" viewBox="0 0 700.000000 700.000000"
 preserveAspectRatio="xMidYMid meet">
<metadata>
Created by potrace 1.14, written by Peter Selinger 2001-2017
</metadata>
<g transform="translate(0.000000,700.000000) scale(0.100000,-0.100000)"
fill="#000000" stroke="none">
<path d="M4505 4224 c-111 -18 -216 -65 -286 -131 -96 -89 -134 -191 -127
-338 3 -82 8 -101 41 -168 64 -130 153 -192 387 -272 73 -25 145 -52 161 -61
52 -27 47 -96 -9 -111 -15 -5 -58 -8 -97 -7 -85 1 -148 29 -215 98 -24 25 -51
46 -59 46 -25 0 -290 -203 -297 -228 -7 -27 32 -74 119 -145 205 -165 568
-202 807 -82 160 81 248 268 219 471 -26 189 -147 297 -444 394 -172 57 -185
63 -185 100 0 40 32 60 98 60 63 0 105 -16 168 -64 35 -27 50 -33 64 -26 29
15 230 236 230 253 0 24 -105 113 -173 146 -34 17 -89 37 -122 46 -62 16 -227
27 -280 19z"/>
<path d="M552 4198 c-9 -9 -12 -138 -12 -518 0 -478 -1 -508 -18 -523 -35 -32
-78 -17 -112 38 -12 20 -30 35 -41 35 -22 0 -306 -179 -314 -198 -8 -21 29
-83 82 -135 77 -78 175 -121 307 -136 99 -12 208 0 290 31 113 42 208 156 235
286 16 77 15 1104 -1 1120 -17 17 -399 17 -416 0z"/>
<path d="M1552 4198 c-9 -9 -12 -179 -12 -704 0 -616 2 -694 16 -708 13 -13
46 -16 200 -16 109 0 193 4 205 10 18 10 19 29 19 708 0 530 -3 701 -12 710
-17 17 -399 17 -416 0z"/>
<path d="M2492 4198 c-8 -8 -12 -62 -12 -178 0 -116 4 -170 12 -178 8 -8 63
-12 180 -12 l168 0 0 -520 c0 -503 1 -520 19 -530 12 -6 96 -10 205 -10 154 0
187 3 200 16 14 14 16 76 16 530 l0 514 168 0 c117 0 172 4 180 12 8 8 12 62
12 178 0 116 -4 170 -12 178 -17 17 -1119 17 -1136 0z"/>
<path d="M5640 4189 c-8 -15 -10 -156 -8 -492 5 -513 6 -524 65 -647 35 -73
142 -179 219 -218 123 -62 277 -87 437 -71 283 29 469 184 522 436 19 91 22
982 3 1001 -18 18 -401 17 -416 -1 -8 -9 -12 -163 -14 -478 -3 -443 -4 -466
-23 -498 -33 -56 -67 -75 -144 -79 -94 -6 -151 19 -183 80 -23 43 -23 46 -28
513 l-5 470 -207 3 c-201 2 -207 2 -218 -19z"/>
</g>
</svg>
